<?xml version="1.0" encoding="iso-8859-1"?>
<!-- Uploaded to: SVG Repo, www.svgrepo.com, Generator: SVG Repo Mixer Tools -->
<svg height="800px" width="800px" version="1.1" id="Layer_1" xmlns="http://www.w3.org/2000/svg" xmlns:xlink="http://www.w3.org/1999/xlink" 
	 viewBox="0 0 512.001 512.001" xml:space="preserve">
<g>
	<path style="fill:#F4B2B0;" d="M256.001,85.791c0,6.026-0.965,11.815-2.761,17.233H148.922c-1.796-5.418-2.761-11.207-2.761-17.233
		c0-30.34,24.595-54.92,54.92-54.92S256.001,55.451,256.001,85.791z"/>
	<path style="fill:#F4B2B0;" d="M365.84,85.791c0,6.026-0.965,11.815-2.761,17.233H258.762c-1.796-5.418-2.761-11.207-2.761-17.233
		c0-30.34,24.595-54.92,54.92-54.92S365.84,55.451,365.84,85.791z"/>
</g>
<path style="fill:#B3404A;" d="M258.762,117.867h-5.522c-8.198,0-14.843-6.647-14.843-14.843s6.645-14.843,14.843-14.843h5.522
	c8.196,0,14.843,6.647,14.843,14.843S266.959,117.867,258.762,117.867z"/>
<g>
	<polygon style="fill:#F4B2B0;" points="313.393,307.958 256.001,263.4 198.607,307.958 198.607,103.024 313.393,103.024 	"/>
	<polygon style="fill:#F4B2B0;" points="198.605,384.648 255.999,340.09 313.392,384.648 	"/>
</g>
<path style="fill:#B3404A;" d="M497.157,88.182H380.636c0.027-0.796,0.048-1.591,0.048-2.39c0-38.468-31.295-69.763-69.763-69.763
	c-22.28,0-42.138,10.512-54.92,26.82c-12.781-16.31-32.64-26.82-54.92-26.82c-38.468,0-69.763,31.295-69.763,69.763
	c0,0.799,0.021,1.594,0.048,2.39H14.843C6.645,88.182,0,94.829,0,103.025v96.228c0,8.196,6.645,14.843,14.843,14.843h23.705v267.032
	c0,8.196,6.645,14.843,14.843,14.843H458.61c8.196,0,14.843-6.647,14.843-14.843V273.52c0-8.196-6.647-14.843-14.843-14.843
	s-14.843,6.647-14.843,14.843v192.766H328.235v-81.638c0-4.585-2.12-8.913-5.74-11.723l-57.393-44.559
	c-5.357-4.161-12.851-4.159-18.205-0.001l-57.394,44.559c-3.622,2.813-5.741,7.141-5.741,11.725v81.638H68.234V214.097h115.529
	v93.861c0,5.666,3.227,10.84,8.317,13.331c2.072,1.014,4.303,1.513,6.525,1.513c3.237,0,6.451-1.058,9.105-3.119l48.291-37.491
	l48.292,37.491c4.475,3.473,10.54,4.094,15.628,1.606c5.09-2.492,8.317-7.665,8.317-13.331V117.868h154.077v66.542h-95.694
	c-8.196,0-14.843,6.647-14.843,14.843s6.647,14.843,14.843,14.843h110.537c8.196,0,14.843-6.647,14.843-14.843v-96.228
	C512,94.827,505.355,88.182,497.157,88.182z M213.448,391.917l42.551-33.035l42.55,33.035v74.37h-85.101V391.917z M183.763,184.41
	H29.686v-66.542h154.077V184.41z M198.607,88.181h-37.534c-0.046-0.793-0.07-1.588-0.07-2.388c0-22.099,17.978-40.077,40.077-40.077
	s40.077,17.978,40.077,40.077c0,0.8-0.024,1.596-0.07,2.388H198.607z M298.552,277.644l-33.449-25.968
	c-2.678-2.078-5.89-3.119-9.102-3.119c-3.212,0-6.424,1.039-9.102,3.119l-33.448,25.968V117.867h39.79h5.522h39.79v159.777H298.552z
	 M350.927,88.181h-37.533h-42.481c-0.046-0.793-0.07-1.588-0.07-2.388c0-22.099,17.978-40.077,40.077-40.077
	s40.077,17.978,40.077,40.077C350.997,86.591,350.973,87.388,350.927,88.181z"/>
</svg>