<?xml version="1.0" encoding="iso-8859-1"?>
<!-- Uploaded to: SVG Repo, www.svgrepo.com, Generator: SVG Repo Mixer Tools -->
<svg height="800px" width="800px" version="1.1" id="Layer_1" xmlns="http://www.w3.org/2000/svg" xmlns:xlink="http://www.w3.org/1999/xlink" 
	 viewBox="0 0 512 512" xml:space="preserve">
<circle style="fill:#F4B2B0;" cx="306.114" cy="339.643" r="43.948"/>
<g>
	<path style="fill:#B3404A;" d="M391.288,280.722c-8.265,0-14.968,6.703-14.968,14.968c0,8.265,6.703,14.968,14.968,14.968
		c15.98,0,28.98,13.001,28.98,28.98s-13.001,28.98-28.98,28.98c-11.677,0-22.16-6.95-26.709-17.704
		c-0.142-0.337-0.308-0.654-0.471-0.974c0.593-3.348,0.921-6.787,0.921-10.301c0-32.487-26.429-58.916-58.916-58.916
		s-58.916,26.429-58.916,58.916s26.429,58.916,58.916,58.916c16.716,0,31.818-7.01,42.552-18.23
		c10.909,11.439,26.181,18.23,42.626,18.23c32.487,0,58.916-26.429,58.916-58.916S423.775,280.722,391.288,280.722z M306.111,368.62
		c-15.98,0-28.98-13.001-28.98-28.98s13.001-28.98,28.98-28.98s28.98,13.001,28.98,28.98S322.091,368.62,306.111,368.62z"/>
	<path style="fill:#B3404A;" d="M199.912,378.87H76.763c-8.265,0-14.968-6.703-14.968-14.968v-48.527
		c0-8.265,6.703-14.968,14.968-14.968h123.148c8.265,0,14.968,6.703,14.968,14.968s-6.703,14.968-14.968,14.968H91.731v18.59h108.18
		c8.265,0,14.968,6.703,14.968,14.968C214.879,372.167,208.177,378.87,199.912,378.87z"/>
</g>
<g>
	<path style="fill:#F4B2B0;" d="M369.379,158.125c0.736-8.325,0.189-15.429-5.04-20.908c-18.938-19.839-63.691,3.057-85.822,20.583
		c-4.496-3.181-9.972-5.92-15.896-5.92h-13.244c-5.924,0-11.4,2.48-15.896,5.659c-22.13-17.525-66.882-39.732-85.82-19.894
		c-5.228,5.477-5.778,12.154-5.04,20.479l-1.567,58.279c1.606,49.953,67.321,23.943,95.873,3.235
		c3.744,1.899,7.966,3.009,12.451,3.009h13.244c4.486,0,8.707-1.109,12.451-3.009c28.552,20.707,94.267,46.719,95.873-3.235
		L369.379,158.125z"/>
	<path style="fill:#F4B2B0;" d="M141.054,216.405l1.567-58.279c-0.073-0.828-0.129-1.636-0.174-2.432H14.968v65.101H141.38
		C141.214,219.401,141.104,217.94,141.054,216.405z"/>
	<path style="fill:#F4B2B0;" d="M369.552,155.693c-0.045,0.799-0.1,1.608-0.174,2.432l1.567,58.279
		c-0.049,1.534-0.16,2.995-0.328,4.39H497.03v-65.101H369.552L369.552,155.693z"/>
</g>
<path style="fill:#B3404A;" d="M497.032,140.726H383.07c-1.358-4.778-3.779-9.523-7.903-13.843
	c-5.359-5.613-15.131-12.305-31.26-12.305c-22.265,0-48.103,12.657-66.55,25.468c-4.917-2.084-9.846-3.133-14.736-3.133h-13.244
	c-4.884,0-9.84,1.013-14.684,2.973c-16.404-11.216-42.775-25.01-66.186-25.01c-16.371,0-26.262,6.763-31.676,12.434
	c-4.023,4.214-6.415,8.803-7.788,13.416H29.936V91.183h467.095c8.265,0,14.968-6.703,14.968-14.968s-6.703-14.968-14.968-14.968
	H14.968C6.703,61.247,0,67.95,0,76.215v79.48v65.1v214.991c0,8.265,6.703,14.968,14.968,14.968h482.064
	c8.265,0,14.968-6.703,14.968-14.968V220.794v-60.931v-4.169C512,147.428,505.297,140.726,497.032,140.726z M482.064,205.826
	h-96.428l-0.081-3.001l-0.864-32.162h97.372L482.064,205.826L482.064,205.826z M158.488,147.981
	c0.748-0.783,3.025-3.169,10.021-3.169c16.101,0,40.704,12.603,55.68,24.462c5.207,4.122,12.506,4.324,17.93,0.488
	c2.658-1.879,5.236-2.913,7.258-2.913h13.244c1.033,0,3.35,0.412,7.255,3.173c5.426,3.838,12.727,3.637,17.933-0.486
	c15.7-12.436,40.01-25.022,56.098-25.022c6.704,0,8.888,2.287,9.605,3.04c0.442,0.461,1.413,1.501,1.096,7.307
	c-0.036,0.639-0.079,1.284-0.138,1.941c-0.051,0.573-0.069,1.15-0.052,1.723l1.554,57.803c-0.04,0.927-0.111,1.825-0.214,2.669
	c-0.016,0.132-0.013,0.263-0.027,0.395c-0.964,8.179-4.609,10.807-13.88,10.807c-0.001,0-0.001,0-0.001,0
	c-17.356-0.001-42.83-11.687-57.988-22.68c-2.604-1.89-5.688-2.851-8.789-2.851c-2.313,0-4.636,0.534-6.773,1.621
	c-1.816,0.921-3.724,1.389-5.676,1.389h-13.244c-1.952,0-3.86-0.469-5.676-1.389c-5.007-2.543-11.017-2.067-15.562,1.23
	c-15.16,10.994-40.633,22.68-57.987,22.68c-9.274,0-12.921-2.628-13.883-10.809c-0.012-0.132-0.01-0.262-0.027-0.394
	c-0.102-0.846-0.174-1.742-0.214-2.669l1.554-57.803c0.016-0.575-0.001-1.15-0.052-1.721c-0.001-0.018-0.003-0.033-0.004-0.052
	c-0.055-0.642-0.1-1.266-0.133-1.883c0-0.004-0.001-0.007-0.001-0.012C157.096,149.46,157.952,148.543,158.488,147.981z
	 M127.309,170.663l-0.873,32.482l-0.072,2.681H29.936v-35.163H127.309z M29.936,420.817V235.762h99.941
	c6.393,15.54,20.53,24.377,40.275,24.377c22.252,0,49.766-11.63,68.842-23.816c3.378,0.861,6.848,1.293,10.385,1.293h13.244
	c3.535,0,7.007-0.433,10.385-1.293c19.075,12.186,46.587,23.814,68.84,23.816c0.002,0,0.002,0,0.002,0
	c19.743,0,33.882-8.839,40.273-24.377h99.941v185.055H29.936z"/>
</svg>